<svg id="Layer_1" data-name="Layer 1" xmlns="http://www.w3.org/2000/svg" xmlns:xlink="http://www.w3.org/1999/xlink" viewBox="0 0 693.9 460.97"><defs><style>.cls-1,.cls-67,.cls-68{fill:none;}.cls-2{fill:#e3e9f1;}.cls-3{clip-path:url(#clip-path);}.cls-4{fill:#ffe2db;}.cls-5{clip-path:url(#clip-path-2);}.cls-6{fill:#f1f5fb;}.cls-7{clip-path:url(#clip-path-3);}.cls-8{clip-path:url(#clip-path-4);}.cls-9{clip-path:url(#clip-path-6);}.cls-10{fill:#f9fbff;}.cls-11{clip-path:url(#clip-path-7);}.cls-12{clip-path:url(#clip-path-8);}.cls-13{clip-path:url(#clip-path-9);}.cls-14{clip-path:url(#clip-path-10);}.cls-15{clip-path:url(#clip-path-11);}.cls-16{clip-path:url(#clip-path-12);}.cls-17{clip-path:url(#clip-path-13);}.cls-18{clip-path:url(#clip-path-14);}.cls-19{clip-path:url(#clip-path-15);}.cls-20{clip-path:url(#clip-path-16);}.cls-21{clip-path:url(#clip-path-17);}.cls-22{clip-path:url(#clip-path-18);}.cls-23{clip-path:url(#clip-path-19);}.cls-24{clip-path:url(#clip-path-20);}.cls-25{clip-path:url(#clip-path-21);}.cls-26{clip-path:url(#clip-path-22);}.cls-27{clip-path:url(#clip-path-23);}.cls-28{clip-path:url(#clip-path-24);}.cls-29{clip-path:url(#clip-path-25);}.cls-30{clip-path:url(#clip-path-26);}.cls-31{clip-path:url(#clip-path-27);}.cls-32{clip-path:url(#clip-path-28);}.cls-33{clip-path:url(#clip-path-29);}.cls-34{clip-path:url(#clip-path-30);}.cls-35{clip-path:url(#clip-path-31);}.cls-36{clip-path:url(#clip-path-32);}.cls-37{clip-path:url(#clip-path-33);}.cls-38{clip-path:url(#clip-path-34);}.cls-39{clip-path:url(#clip-path-35);}.cls-40{clip-path:url(#clip-path-36);}.cls-41{clip-path:url(#clip-path-37);}.cls-42{clip-path:url(#clip-path-38);}.cls-43{clip-path:url(#clip-path-39);}.cls-44{clip-path:url(#clip-path-40);}.cls-45{clip-path:url(#clip-path-41);}.cls-46{clip-path:url(#clip-path-42);}.cls-47{clip-path:url(#clip-path-43);}.cls-48{clip-path:url(#clip-path-44);}.cls-49{clip-path:url(#clip-path-45);}.cls-50{clip-path:url(#clip-path-46);}.cls-51{clip-path:url(#clip-path-47);}.cls-52{clip-path:url(#clip-path-48);}.cls-53{clip-path:url(#clip-path-49);}.cls-54{clip-path:url(#clip-path-50);}.cls-55{clip-path:url(#clip-path-51);}.cls-56{clip-path:url(#clip-path-52);}.cls-57{clip-path:url(#clip-path-53);}.cls-58{clip-path:url(#clip-path-54);}.cls-59{clip-path:url(#clip-path-55);}.cls-60{clip-path:url(#clip-path-56);}.cls-61{clip-path:url(#clip-path-57);}.cls-62{clip-path:url(#clip-path-58);}.cls-63{clip-path:url(#clip-path-59);}.cls-64{clip-path:url(#clip-path-60);}.cls-65{clip-path:url(#clip-path-61);}.cls-66{fill:#b5bdc2;}.cls-67,.cls-68{stroke:#e3e9f1;stroke-linecap:round;stroke-miterlimit:10;stroke-width:2px;}.cls-68{stroke-dasharray:4.9 9.81;}.cls-69{fill:#fff;}</style><clipPath id="clip-path" transform="translate(-122.2 -150.2)"><path class="cls-1" d="M687.6,348.71c0,59.49-270.6,59.49-270.6,0S475.4,241,550.9,241s136.7,48.22,136.7,107.71Z"/></clipPath><clipPath id="clip-path-2" transform="translate(-122.2 -150.2)"><path class="cls-1" d="M785.4,382a2.93,2.93,0,0,1-1.6.4H763.5a9.25,9.25,0,0,0,2.9-.4Z"/></clipPath><clipPath id="clip-path-3" transform="translate(-122.2 -150.2)"><path class="cls-1" d="M802.4,368.7v6.4a7,7,0,0,1-7,7H766.5a14.46,14.46,0,0,1-2.9.4h-184v10.1H395.1v-35H265.9v12.8a12,12,0,0,1-12,12H207.3a12,12,0,0,1-12-12V350.9a12,12,0,0,1,12-12h5.5V334a7,7,0,0,1,7-7H255a7.22,7.22,0,0,1-.8-3.2V307.2a7,7,0,0,1,7-7h46v-4.7a7,7,0,0,1,7-7h3.3V245.2a5.87,5.87,0,0,1,5.7-5.9V227.5a5.9,5.9,0,1,1,11.8,0v4.9a5.79,5.79,0,0,1,4.2,5.6v11.2h.1a5.91,5.91,0,0,1,5.9,5.9v21.7a3.75,3.75,0,0,1,1.1-.1h5.3a2.2,2.2,0,0,1,.8.1,5.84,5.84,0,0,1,4.9-5.2V234.3a3.75,3.75,0,0,1,.1-1.1,7,7,0,0,1,7-7h3.2v-4.8a5.9,5.9,0,1,1,11.8,0v3.1a5.73,5.73,0,0,1,2.5-.6,5.55,5.55,0,0,1,2.8.7v-2.9a5.93,5.93,0,0,1,.5-2.3v-7.2a7,7,0,0,1,7-7h7.1a7,7,0,0,1,5.1,2.2,6,6,0,0,1,2.1,4.5v4.3a5.86,5.86,0,0,1,8.2.9,5.94,5.94,0,0,1,1.3,3.7v1a4.4,4.4,0,0,1,1.6-.2,5.91,5.91,0,0,1,5.9,5.9v41.1l8-.2V212.1a5.8,5.8,0,0,1,3.5-5.3V191.7a4,4,0,0,1,4-4h10.5a4,4,0,0,1,4,4v21.1a5.54,5.54,0,0,1,1.8-.2H463a7,7,0,0,1,7,7v25.8h1.4a4,4,0,0,1,4,4v39.1h14.4a7,7,0,0,1,7,7v4.7h41.7a7,7,0,0,1,7,7v16.6a7.22,7.22,0,0,1-.8,3.2h36.6a7,7,0,0,1,7,7v.2h2.4V313.7a12,12,0,0,1,12-12h23v-62a4.58,4.58,0,0,1,4.2-4.6V159.9a4.69,4.69,0,0,1,4.7-4.7h10.2a4.69,4.69,0,0,1,4.7,4.7h0v27.9h2.6v-5.1a4.67,4.67,0,0,1,4.6-4.7h1.1a4.69,4.69,0,0,1,4.7,4.7v26.9a4.1,4.1,0,0,1,1.1-.1h3.3V182.3a4.69,4.69,0,0,1,4.7-4.7h10.2a4.69,4.69,0,0,1,4.7,4.7h0v10.1a4.1,4.1,0,0,1,1.1-.1h5.9V178.5a4.69,4.69,0,0,1,4.7-4.7h10.2a4.69,4.69,0,0,1,4.7,4.7v44.8a4.74,4.74,0,0,1-4.6,4.7v21.9h3a4.69,4.69,0,0,1,4.7,4.7v47.1H737a12,12,0,0,1,12,12v20.5h14.5a12,12,0,0,1,12,12v15.6h-1.1v.8h1.1v-.8h19.9A6.81,6.81,0,0,1,802.4,368.7Z"/></clipPath><clipPath id="clip-path-4" transform="translate(-122.2 -150.2)"><rect class="cls-1" x="774.5" y="361.7" width="1.1" height="0.8"/></clipPath><clipPath id="clip-path-6" transform="translate(-122.2 -150.2)"><path class="cls-1" d="M600.1,334.9a54.19,54.19,0,0,0,5.7,0c2.7,0,5.3-.1,8-.1,20.9-.2,42.3-.3,63.4-.3,10.8,0,20.1.4,30.9.3,4.9,0,10.3.1,15.2.2s11.4.3,16.3-.1c1.7-.1,8.5-.9,9.4-.8a5.39,5.39,0,0,1,1.3.7,240.17,240.17,0,0,1-33.9,2.1c-.1,0,6.1,5.7,5.4,5.7-.5,0-10-4.6-10.2-4.6-11.4-.7-22.9,0-34.3-.4-.7,0-1.8,3.9-2.6,3.5-1-.4-1.6-3.7-1.7-3.7-17.1,0-51.3-1.3-52.1-1.1-1.9.3-6.3,2-7.1,2-1.3,0,3.9-2,2.7-2h-8.6c-.1,0-12.7,4.5-13.9,4.4-1-.1,9.9-4.7,9.1-4.8a33,33,0,0,1-7.6-1.5c.1,0,.9-.5,1.1-.4l1.4.5A15.52,15.52,0,0,0,600.1,334.9Z"/></clipPath><clipPath id="clip-path-7" transform="translate(-122.2 -150.2)"><path class="cls-1" d="M598.7,313.3c1.8-1,2.9,2.4,9,2.5,6.4,0,10.1-.3,16.5-.3,12.5-.1,24.9-.1,37.4.4,24.1,1,80.3,3.1,85-.4.4-.3,3,1.8,3,1.8-.9.9-26,5.7-28.8,5.6-.2,0,3.4,5,2.8,5a.76.76,0,0,1-.4-.2c-1.8-1.3-6.2-4.9-6.4-4.9-10.5.3-30.6-2.6-43-2.6-.6,0-2.8,6.2-3.3,6s-.1-5.9-.7-6c-16-3.1-38.4-.3-54.4-.3-.6,0-5.1,3.2-5.7,3.1s3.5-3.1,2.9-3.1c-2.3,0-4.6-.1-6.9-.1-1.8,0-11.8,7.3-13,6.5-.8-.5,9.1-7.9,8.5-8.5-1.8-2-3.2-3.7-2.9-4C598.3,313.5,598.5,313.4,598.7,313.3Z"/></clipPath><clipPath id="clip-path-8" transform="translate(-122.2 -150.2)"><path class="cls-1" d="M775.5,357.2c.2-.2-.9-1-1-1-11,2.7-22.8,2.1-34.3,2.1h-9.1c-3,0-6,0-9.1-.1s-6-.1-9.1-.2l-9.1-.3c-1,0-1.9-.1-2.9-.1-13.5-.6-27-1.5-40.5-.9-10.3.4-20.5,1.7-30.7,2.1-7.7.3-15.9.8-23.4-.7a28.22,28.22,0,0,1-8.4-3.5s-1.1.6-.9.8a39.07,39.07,0,0,0,3,4.1c.1,0-.6.8-.7.8-.7.7-1.4,1.3-2.1,2-.9.9-1.9,1.7-2.8,2.6s-1.9,1.8-2.9,2.7a23.91,23.91,0,0,0-2.2,2.3c-.2.2-.4.5-.6.7s-.4.5-.4.8a2.07,2.07,0,0,0,1-.6c2.2-1.4,4.2-2.9,6.3-4.4,1.8-1.3,3.4-2.8,5.3-4,1.3-.8,3.5-2,4.4-1.9.5.1,2.9.4,5,.6.5.1-4.7,4.9-4.3,5s6.4-4.7,6.7-4.7a52.72,52.72,0,0,0,6.8.4c5.2.2,10.4,0,15.6-.3,10.5-.6,21-1.7,31.5-1.8,5.1,0,11.6.7,16.7.7.5,0-.3,11.8.4,12s2.8-11.8,3-11.8c4.5,0,14.5,1.2,19,1.4,10.8.5,23.2.3,34,0,.7,0,8.1,7.7,8.7,7.7,1.2,0-5.4-7.8-4.8-7.8,6.3-.4,16.4.1,22.7-1C770.9,359.9,771.9,358.9,775.5,357.2Z"/></clipPath><clipPath id="clip-path-9" transform="translate(-122.2 -150.2)"><path class="cls-1" d="M318.5,329.7c2.8.2,5.9,0,8.7,0,4,0,8.1-.1,12.1-.1,31.8-.2,64.2-.4,96.2-.4,16.4,0,30.5.5,46.8.5,7.5,0,15.6.2,23,.3,7.6.1,17.2.4,24.8-.1,2.6-.2,13-1.2,14.3-1.1a5.38,5.38,0,0,1,2,1,424.87,424.87,0,0,1-51.4,2.8c-.1,0,9.2,7.6,8.1,7.6-.7,0-15.1-6.2-15.4-6.2-17.3-1-34.8,0-52.1-.6-1.1,0-2.7,5.2-4,4.8-1.5-.6-2.4-4.9-2.6-4.9-25.9,0-77.7-1.7-79-1.5-2.9.4-9.6,2.7-10.8,2.7-2,0,5.9-2.7,4.2-2.7h-13c-.2,0-19.3,6-21.1,5.9-1.6-.1,15.1-6.4,13.8-6.5a56.55,56.55,0,0,1-11.5-2,16.19,16.19,0,0,1,1.7-.6c.5.1,1.6.5,2.1.6A28.68,28.68,0,0,0,318.5,329.7Z"/></clipPath><clipPath id="clip-path-10" transform="translate(-122.2 -150.2)"><path class="cls-1" d="M264.6,356.4c3.5-1,5.5,2.4,17,2.5,11.9,0,19-.3,30.9-.3,23.4-.1,46.9-.1,70.3.4,45.2,1,151,3.1,159.7-.4.7-.3,5.6,1.8,5.6,1.8-1.7.9-48.9,5.7-54.2,5.6-.4,0,6.4,5,5.2,5a2.35,2.35,0,0,1-.8-.2c-3.4-1.3-11.6-4.9-12-4.9-19.8.3-57.6-2.6-80.9-2.6-1,0-5.2,6.2-6.2,6-1.2-.2-.3-5.9-1.3-6-30.1-3.1-72.1-.3-102.2-.3-1.1,0-9.6,3.2-10.8,3.1s6.6-3.1,5.5-3.1c-4.3,0-8.6-.1-13-.1-3.4,0-22.1,7.3-24.3,6.5-1.5-.5,17-7.9,15.9-8.5-3.4-2-6-3.7-5.4-4A3.13,3.13,0,0,1,264.6,356.4Z"/></clipPath><clipPath id="clip-path-11" transform="translate(-122.2 -150.2)"><path class="cls-1" d="M311,302.9c2.4.1,4.7.1,7.1,0,3.3,0,6.6-.1,9.9-.1,26-.3,52.5-.4,78.6-.4,13.4,0,24.9.5,38.3.5,6.1,0,12.7.2,18.8.3s14.1.4,20.3-.1c2.2-.2,10.6-1.3,11.6-1.1a5.37,5.37,0,0,1,1.6,1,262,262,0,0,1-42,2.9c-.1,0,7.5,7.9,6.7,7.9-.6,0-12.4-6.5-12.6-6.5-14.2-1-28.4,0-42.6-.6-.9,0-2.2,5.4-3.3,5-1.3-.6-2-5.1-2.2-5.1-21.2,0-63.5-1.8-64.6-1.6-2.4.5-7.8,2.8-8.8,2.8-1.6,0,4.9-2.8,3.4-2.8H320.6c-.2,0-15.8,6.3-17.2,6.2s12.3-6.6,11.3-6.7a38.68,38.68,0,0,1-9.4-2.1c.1,0,1.2-.7,1.4-.6.4.2,1.3.5,1.7.7C309.3,302.6,310.2,302.8,311,302.9Z"/></clipPath><clipPath id="clip-path-12" transform="translate(-122.2 -150.2)"><path class="cls-1" d="M640.7,262.6a56.73,56.73,0,0,1-.5-5.8c0-2.6.2-5.1.2-7.7,0-4.1.8-11.1-.4-14.7-.4-1.1-.9-2-1.2-3.1a13.36,13.36,0,0,1-.7-3.9.9.9,0,0,1,.1-.5.37.37,0,0,1,.3-.1c1-.1,1.7.2,1.7-1.4V217l.3-39.6c0-1.6,1-1,1.7-.7h.1a.35.35,0,0,0,.1-.2,5.83,5.83,0,0,0,.2-2.3,31.33,31.33,0,0,1,.2-5.3,8.75,8.75,0,0,0,.2-1.6c.1-.3.1-.6.2-.9v-.1a.1.1,0,0,1,.1.1,5.66,5.66,0,0,1,.3,1.8v2.1c0,1.4,0,2.9-.1,4.3-.1,1.8-.1,3.6-.2,5.4l-.1,5.9-.1,6.5-.1,6.8-.1,6.8-.1,6.6-.1,6.1-.1,5.3c0,2.8-.5,6.3.3,8.9.1.4.2.7.3,1.1a6.69,6.69,0,0,1-.5,1.9,8.33,8.33,0,0,0-.3,2.2c-.1,3.9-.4,7.8-.4,11.7,0,4.3.4,8.6-.4,12.8a7.84,7.84,0,0,0-.5-1.4c.4.4-.2,1.2-.4,1.4Z"/></clipPath><clipPath id="clip-path-13" transform="translate(-122.2 -150.2)"><path class="cls-1" d="M660,186.1a.55.55,0,0,0-.3-.5c-1-.6-.9,4.5-1,5.4-1.4,32.9-.4,66,.3,98.9a8.42,8.42,0,0,0,.4,2.7c1.6-7.4,1.6-16.2,1.7-24,.1-8.4-.1-16.9-.3-25.3l-.9-52.4A19.29,19.29,0,0,0,660,186.1Z"/></clipPath><clipPath id="clip-path-14" transform="translate(-122.2 -150.2)"><path class="cls-1" d="M678.7,288.1c-.2-.2-.4-5.9-.4-6.1,0-2.7.2-5.4.2-8.1,0-4.3.6-11.6-.3-15.5a31.78,31.78,0,0,1-.9-3.3,18.41,18.41,0,0,1-.5-4.1.9.9,0,0,1,.1-.5c0-.1.1-.1.2-.2.8-.1,1.3.2,1.3-1.5V240c.1-13.9.1-27.8.3-41.7,0-1.7.8-1,1.3-.8h.1a.35.35,0,0,0,.1-.2,6.47,6.47,0,0,0,.1-2.4,35,35,0,0,1,.2-5.6c.1-.6.1-1.1.2-1.7,0-.3.1-.7.1-1v-.1a.1.1,0,0,1,.1.1,6.15,6.15,0,0,1,.2,1.9v2.2c0,1.5,0,3-.1,4.5,0,1.9-.1,3.8-.1,5.7l-.1,6.2-.1,6.8-.1,7.2-.1,7.2-.1,6.9-.1,6.4-.1,5.6c0,3-.4,6.6.2,9.4a5,5,0,0,1,.2,1.2,7.11,7.11,0,0,1-.4,2,17.85,17.85,0,0,0-.2,2.3c-.1,4.1-.3,8.2-.3,12.3,0,4.5.3,9.1-.3,13.5a8.33,8.33,0,0,0-.4-1.5,1.91,1.91,0,0,1-.3,1.7Z"/></clipPath><clipPath id="clip-path-15" transform="translate(-122.2 -150.2)"><path class="cls-1" d="M692,208.8a.76.76,0,0,0-.2-.4c-.8-.5-.7,3.3-.8,4-1.1,24.4-.3,48.9.3,73.3a6.93,6.93,0,0,0,.3,2c1.3-5.5,1.3-12,1.4-17.8.1-6.3-.1-12.5-.2-18.8l-.7-38.8A20.18,20.18,0,0,0,692,208.8Z"/></clipPath><clipPath id="clip-path-16" transform="translate(-122.2 -150.2)"><path class="cls-1" d="M679.7,179.9a15.21,15.21,0,0,0-5.2-.3,6.26,6.26,0,0,1-2.7-.3,2.87,2.87,0,0,0-2.4,0,2.09,2.09,0,0,0-.7,1.8c-.4,5.2.5,10.5.6,15.7a73,73,0,0,1-.1,8.1,3.08,3.08,0,0,0-.1,1s.2,1.1.7-1.2a22.72,22.72,0,0,0,.3-5.2c.1-3,.2-5.9.3-8.9.1-2.3.2-4.7.5-7,.1-.7,0-2,.8-2.4a1.27,1.27,0,0,1,.6-.1,48.86,48.86,0,0,1,5.4.3,18.48,18.48,0,0,0,2.3.1,17.42,17.42,0,0,0,2.2-.5C681.9,180.4,680.5,180.1,679.7,179.9Z"/></clipPath><clipPath id="clip-path-17" transform="translate(-122.2 -150.2)"><path class="cls-1" d="M705,176.4a24.32,24.32,0,0,0-4.7-.2,9.74,9.74,0,0,1-2.4-.2,3.75,3.75,0,0,0-2.1,0,1.36,1.36,0,0,0-.7,1.1c-.3,3.2.5,6.5.6,9.8a43.41,43.41,0,0,1-.1,5.1,1.27,1.27,0,0,0-.1.6s.1.7.6-.7a18.16,18.16,0,0,0,.3-3.2c.1-1.8.1-3.7.3-5.5a32.93,32.93,0,0,1,.5-4.4c.1-.4,0-1.3.7-1.5.2,0,.4-.1.6-.1a38.54,38.54,0,0,1,4.8.2,14.77,14.77,0,0,0,2.1.1c.7-.1,1.3-.2,1.9-.3A3.57,3.57,0,0,0,705,176.4Z"/></clipPath><clipPath id="clip-path-18" transform="translate(-122.2 -150.2)"><path class="cls-1" d="M643,157.5a15.21,15.21,0,0,0-5.2-.3,6.26,6.26,0,0,1-2.7-.3,2.87,2.87,0,0,0-2.4,0,2.09,2.09,0,0,0-.7,1.8c-.4,5.2.5,10.5.6,15.7a73,73,0,0,1-.1,8.1,3.08,3.08,0,0,0-.1,1s.2,1.1.7-1.2a22.72,22.72,0,0,0,.3-5.2c.1-3,.2-5.9.3-8.9.1-2.3.2-4.7.5-7,.1-.7,0-2,.8-2.4a1.27,1.27,0,0,1,.6-.1,48.86,48.86,0,0,1,5.4.3,18.48,18.48,0,0,0,2.3.1,17.42,17.42,0,0,0,2.2-.5C645.2,158.1,643.7,157.7,643,157.5Z"/></clipPath><clipPath id="clip-path-19" transform="translate(-122.2 -150.2)"><path class="cls-1" d="M703.2,292.1c.2-.2.5-5.9.5-6.1,0-2.7-.2-5.4-.2-8.1,0-4.3-.7-11.6.3-15.5.3-1.1.8-2.2,1.1-3.3a14,14,0,0,0,.6-4.1.9.9,0,0,0-.1-.5c-.1-.1-.2-.2-.3-.2-.9-.1-1.5.2-1.5-1.5V244l-.3-41.7c0-1.7-.9-1-1.5-.8h-.1a.35.35,0,0,1-.1-.2,9.74,9.74,0,0,1-.2-2.4,35,35,0,0,0-.2-5.6c-.1-.6-.1-1.1-.2-1.7a3.55,3.55,0,0,0-.2-1v-.1a.1.1,0,0,0-.1.1,6.28,6.28,0,0,0-.3,1.9v2.2c0,1.5,0,3,.1,4.5.1,1.9.1,3.8.2,5.7l.1,6.2.1,6.8.1,7.2.1,7.2.1,6.9.1,6.4.1,5.6c0,3,.5,6.6-.3,9.4a5,5,0,0,0-.2,1.2,7.34,7.34,0,0,0,.5,2,9,9,0,0,1,.2,2.3c.1,4.1.3,8.2.4,12.3,0,4.5-.3,9.1.4,13.5a8.8,8.8,0,0,1,.5-1.5c-.5.6.1,1.5.3,1.7Z"/></clipPath><clipPath id="clip-path-20" transform="translate(-122.2 -150.2)"><path class="cls-1" d="M456,216.7a15.21,15.21,0,0,1,5.2-.3,6.26,6.26,0,0,0,2.7-.3,2.87,2.87,0,0,1,2.4,0,2.09,2.09,0,0,1,.7,1.8c.4,5.2-.5,10.5-.6,15.7a73,73,0,0,0,.1,8.1,3.08,3.08,0,0,1,.1,1s-.2,1.1-.7-1.2a22.72,22.72,0,0,1-.3-5.2c-.1-3-.2-5.9-.3-8.9-.1-2.3-.2-4.7-.5-7-.1-.7,0-2-.8-2.4a1.27,1.27,0,0,0-.6-.1,48.86,48.86,0,0,0-5.4.3,18.48,18.48,0,0,1-2.3.1,17.42,17.42,0,0,1-2.2-.5C453.8,217.3,455.2,216.9,456,216.7Z"/></clipPath><clipPath id="clip-path-21" transform="translate(-122.2 -150.2)"><path class="cls-1" d="M441.4,189.7a13.94,13.94,0,0,1,5-.3,5.24,5.24,0,0,0,2.5-.3c.8-.2,1.5-.5,2.2,0a2.57,2.57,0,0,1,.7,1.8c.3,5.2-.5,10.5-.6,15.7a73,73,0,0,0,.1,8.1,3.08,3.08,0,0,1,.1,1s-.1,1.1-.6-1.2a45.33,45.33,0,0,1-.3-5.2c-.1-3-.2-5.9-.3-8.9-.1-2.3-.2-4.7-.5-7-.1-.7,0-2-.8-2.4a1.27,1.27,0,0,0-.6-.1,45.33,45.33,0,0,0-5.2.3,8.13,8.13,0,0,1-2.2.1,16,16,0,0,1-2.1-.5A6,6,0,0,1,441.4,189.7Z"/></clipPath><clipPath id="clip-path-22" transform="translate(-122.2 -150.2)"><path class="cls-1" d="M393.3,208.2a13.94,13.94,0,0,1,5-.3,5.24,5.24,0,0,0,2.5-.3c.8-.2,1.5-.5,2.2,0a2.57,2.57,0,0,1,.7,1.8c.3,5.2-.5,10.5-.6,15.7a73,73,0,0,0,.1,8.1,3.08,3.08,0,0,1,.1,1s-.1,1.1-.6-1.2a30.25,30.25,0,0,1-.3-5.2c-.1-3-.2-5.9-.3-8.9-.1-2.3-.2-4.7-.5-7-.1-.7,0-2-.8-2.4a1.27,1.27,0,0,0-.6-.1,45.33,45.33,0,0,0-5.2.3,16.2,16.2,0,0,1-2.2.1,16,16,0,0,1-2.1-.5A6.82,6.82,0,0,1,393.3,208.2Z"/></clipPath><clipPath id="clip-path-23" transform="translate(-122.2 -150.2)"><path class="cls-1" d="M465.2,250.3c.3-.1.5-.3.6-.3l3.4-1.5a7.22,7.22,0,0,1,2.8-.7c1.1,0,1.4.5,1.5.9a3.4,3.4,0,0,1,0,2c-1.4,6.3-.5,8.9-.5,8.9s-.2.5-.8-.5-.5-9.5-3-9c-1.6.4-3.3.8-4.9,1.1a6.75,6.75,0,0,1-1.4.2A15.77,15.77,0,0,1,465.2,250.3Z"/></clipPath><clipPath id="clip-path-24" transform="translate(-122.2 -150.2)"><path class="cls-1" d="M414.8,226.5c.2-.1.4-.3.5-.3l2.6-1.5a4.1,4.1,0,0,1,2.2-.7,1.26,1.26,0,0,1,1.2.9,3.4,3.4,0,0,1,0,2c-1.1,6.3-.4,8.9-.4,8.9s-.1.5-.6-.5-.4-9.5-2.3-9c-1.2.4-2.5.8-3.8,1.1a3.59,3.59,0,0,1-1.1.2C413.7,227.2,414.2,226.9,414.8,226.5Z"/></clipPath><clipPath id="clip-path-25" transform="translate(-122.2 -150.2)"><path class="cls-1" d="M332.4,237.8c.2-.1.3-.3.4-.3l2-1.5a2.84,2.84,0,0,1,1.7-.7.9.9,0,0,1,.9.9,6.69,6.69,0,0,1,0,2c-.8,6.3-.3,8.9-.3,8.9s-.1.5-.5-.5-.3-9.5-1.8-9c-1,.4-1.9.8-2.9,1.1a2.35,2.35,0,0,1-.8.2A10.9,10.9,0,0,1,332.4,237.8Z"/></clipPath><clipPath id="clip-path-26" transform="translate(-122.2 -150.2)"><path class="cls-1" d="M337.3,255.4c.2-.1.3-.3.4-.3l2-1.5a2.84,2.84,0,0,1,1.7-.7.9.9,0,0,1,.9.9,6.69,6.69,0,0,1,0,2c-.8,6.3-.3,8.9-.3,8.9s-.1.5-.5-.5-.3-9.5-1.8-9c-1,.4-1.9.8-2.9,1.1a2.35,2.35,0,0,1-.8.2C336.4,256.1,336.9,255.8,337.3,255.4Z"/></clipPath><clipPath id="clip-path-27" transform="translate(-122.2 -150.2)"><path class="cls-1" d="M361.6,230.5c.2-.1.3-.3.4-.3l2-1.5a2.84,2.84,0,0,1,1.7-.7.9.9,0,0,1,.9.9,6.69,6.69,0,0,1,0,2c-.8,6.3-.3,8.9-.3,8.9s-.1.5-.5-.5-.3-9.5-1.8-9c-1,.4-1.9.8-2.9,1.1a2.35,2.35,0,0,1-.8.2C360.8,231.2,361.2,230.8,361.6,230.5Z"/></clipPath><clipPath id="clip-path-28" transform="translate(-122.2 -150.2)"><path class="cls-1" d="M395,219a.32.32,0,0,0-.3-.3c-1.1-.4-1,3-1,3.5-1.4,21.6-.4,43.3.4,64.9a3.29,3.29,0,0,0,.4,1.7c1.7-4.8,1.7-10.7,1.8-15.8.1-5.5-.1-11.1-.3-16.6l-.9-34.4A10.18,10.18,0,0,0,395,219Z"/></clipPath><clipPath id="clip-path-29" transform="translate(-122.2 -150.2)"><path class="cls-1" d="M410.9,302a25.72,25.72,0,0,1-.5-4c0-1.7.2-3.5.2-5.2,0-2.8.8-7.5-.4-10a22.47,22.47,0,0,1-1.2-2.1,6,6,0,0,1-.7-2.7.35.35,0,0,1,.4-.4c1-.1,1.6.2,1.7-1v-5.7c.1-9,.2-17.9.3-26.9,0-1.1,1-.7,1.7-.5.1,0,.2,0,.2-.1h0a2.62,2.62,0,0,0,.2-1.5,14.52,14.52,0,0,1,.2-3.6,4.25,4.25,0,0,0,.2-1.1c.1-.2.1-.4.2-.6v-.1a.1.1,0,0,1,.1.1,2.66,2.66,0,0,1,.3,1.2v1.4a28.1,28.1,0,0,1-.1,2.9c-.1,1.2-.1,2.4-.2,3.7l-.1,4-.1,4.4-.1,4.6-.1,4.6-.1,4.5-.1,4.1-.1,3.6c0,1.9-.5,4.3.3,6.1a6.89,6.89,0,0,1,.3.8c0,.5-.3.8-.5,1.3a4,4,0,0,0-.3,1.5c-.1,2.6-.4,5.3-.4,7.9,0,2.9.4,5.9-.4,8.7a9.25,9.25,0,0,0-.5-1c.4.4-.2.9-.4,1.1Z"/></clipPath><clipPath id="clip-path-30" transform="translate(-122.2 -150.2)"><path class="cls-1" d="M443.8,203.1c0-.1-.1-.3-.1-.4-.5-.5-.5,3.5-.5,4.2-.7,25.9-.2,52,.2,77.9a7.49,7.49,0,0,0,.2,2.1c.8-5.8.8-12.8.9-18.9.1-6.6-.1-13.3-.1-19.9l-.4-41.2C443.9,205.6,443.8,204.3,443.8,203.1Z"/></clipPath><clipPath id="clip-path-31" transform="translate(-122.2 -150.2)"><path class="cls-1" d="M455.6,224.5c0-.1-.1-.3-.2-.3-.8-.4-.7,3-.7,3.5-1,21.6-.3,43.3.3,64.9a4.67,4.67,0,0,0,.3,1.7c1.2-4.8,1.2-10.7,1.3-15.8.1-5.5-.1-11.1-.2-16.6l-.6-34.4C455.7,226.6,455.7,225.6,455.6,224.5Z"/></clipPath><clipPath id="clip-path-32" transform="translate(-122.2 -150.2)"><path class="cls-1" d="M374.9,233.9c0-.1-.1-.2-.2-.3-.8-.3-.7,2.4-.7,2.8-1,17.2-.3,34.5.3,51.7a3.19,3.19,0,0,0,.3,1.4c1.2-3.9,1.2-8.5,1.3-12.5.1-4.4-.1-8.8-.2-13.2l-.7-27.4A21.75,21.75,0,0,0,374.9,233.9Z"/></clipPath><clipPath id="clip-path-33" transform="translate(-122.2 -150.2)"><path class="cls-1" d="M371.5,219.8l.4-.3,2-1.5a2.84,2.84,0,0,1,1.7-.7.9.9,0,0,1,.9.9,6.69,6.69,0,0,1,0,2c-.8,6.3-.3,8.9-.3,8.9s-.1.5-.5-.5-.3-9.5-1.8-9c-1,.4-1.9.8-2.9,1.1a2.35,2.35,0,0,1-.8.2A12.67,12.67,0,0,1,371.5,219.8Z"/></clipPath><clipPath id="clip-path-34" transform="translate(-122.2 -150.2)"><path class="cls-1" d="M361.5,235.7a.22.22,0,0,0-.2-.2c-.7-.2-.6,1.6-.7,1.9-.9,11.8-.2,23.7.2,35.5a1.93,1.93,0,0,0,.3,1c1.1-2.6,1.1-5.8,1.2-8.6.1-3-.1-6.1-.2-9.1l-.6-18.8A4.84,4.84,0,0,0,361.5,235.7Z"/></clipPath><clipPath id="clip-path-35" transform="translate(-122.2 -150.2)"><path class="cls-1" d="M331,246.3c0-.1-.1-.2-.2-.3-.7-.3-.6,2.5-.6,3-.9,18.5-.2,37,.2,55.5a7.72,7.72,0,0,0,.2,1.5c1.1-4.1,1.1-9.1,1.1-13.5.1-4.7-.1-9.5-.2-14.2l-.6-29.4A4.57,4.57,0,0,0,331,246.3Z"/></clipPath><clipPath id="clip-path-36" transform="translate(-122.2 -150.2)"><path class="cls-1" d="M323.2,242.8c0-.1-.1-.2-.2-.3-.7-.3-.6,2.5-.6,3-.9,18.5-.2,37,.2,55.5a7.72,7.72,0,0,0,.2,1.5c1.1-4.1,1.1-9.1,1.1-13.5.1-4.7-.1-9.5-.2-14.2l-.6-29.4A7.48,7.48,0,0,0,323.2,242.8Z"/></clipPath><clipPath id="clip-path-37" transform="translate(-122.2 -150.2)"><path class="cls-1" d="M406.8,219.5a1.09,1.09,0,0,1,.5-.1l2.6-.7a7.8,7.8,0,0,1,2.2-.3c.9,0,1.1.2,1.2.4a.75.75,0,0,1,0,.9c-1.1,2.8-.4,4-.4,4s-.1.2-.6-.2-.4-4.3-2.3-4c-1.2.2-2.5.3-3.8.5a4.1,4.1,0,0,1-1.1.1A4.07,4.07,0,0,1,406.8,219.5Z"/></clipPath><clipPath id="clip-path-38" transform="translate(-122.2 -150.2)"><path class="cls-1" d="M326.7,225.9c.2-.1.3-.2.4-.2l2-1.2a3.37,3.37,0,0,1,1.7-.5.87.87,0,0,1,.9.6,3.79,3.79,0,0,1,0,1.5c-.8,4.8-.3,6.7-.3,6.7s-.1.4-.5-.4-.3-7.2-1.8-6.8c-1,.3-1.9.6-2.9.9a2.2,2.2,0,0,1-.8.1A8.26,8.26,0,0,0,326.7,225.9Z"/></clipPath><clipPath id="clip-path-39" transform="translate(-122.2 -150.2)"><path class="cls-1" d="M658.5,182.8c-.2-.1-.3-.3-.4-.3L656,181a2.87,2.87,0,0,0-1.8-.7,1.06,1.06,0,0,0-1,.9,6.69,6.69,0,0,0,0,2c.9,6.3.3,8.9.3,8.9s.1.5.5-.5.3-9.5,1.8-9a28.27,28.27,0,0,0,3.1,1.1,2.92,2.92,0,0,0,.9.2A15,15,0,0,1,658.5,182.8Z"/></clipPath><clipPath id="clip-path-40" transform="translate(-122.2 -150.2)"><path class="cls-1" d="M791,397l1,5c0,3.6-13.6,1-17,2-.7.2,8.7,6,8,6l-41.1,1.4v21.5a5,5,0,0,1-5,5H199.1a5,5,0,0,1-5-5v-21L165,425c-2.8,0-8,.8-8-2l3-1c0-2.8-4.8-5-2-5l4.8-28.1a7.94,7.94,0,0,1,6.9-3.9h2.6a7.84,7.84,0,0,1,6.1-2.8h12.1v-2.9a8,8,0,0,1,8-8H216v-1.2a8,8,0,0,1,8-8h6.9a8.1,8.1,0,0,1,7.1-4.3h13.5v-8.4a8,8,0,0,1,8-8h22.8v-6.8a8,8,0,0,1,8-8h18.4a8.13,8.13,0,0,1,7.8,6,8,8,0,0,1,7.2,8v.9a8,8,0,0,1,6.8,7.9v8.2h3.2a7.4,7.4,0,0,1,3.6.9,7.89,7.89,0,0,1,7.5-6.5v-.8a8,8,0,0,1,8-8h5.1a7.92,7.92,0,0,1,6.8-3.8h11.5a8,8,0,0,1,6.8,3.8h1.3a8,8,0,0,1,8,8,4.1,4.1,0,0,1-.1,1.1,8,8,0,0,1,7.4,8v.1h15.5a8,8,0,0,1,8,8v3H452a8,8,0,0,1,8,8v2.9h51.5a8,8,0,0,1,7.9,6.7h47.7c.1-.2.1-.4.2-.6a8.12,8.12,0,0,1,7.5-5.2h6.9a8.1,8.1,0,0,1,7.1-4.3h13.5v-8.4a8,8,0,0,1,8-8h22.8v-6.8a8,8,0,0,1,8-8h18.4a8.13,8.13,0,0,1,7.8,6,8,8,0,0,1,7.2,8v.9a8,8,0,0,1,6.8,7.9v2.2h18.2a7.63,7.63,0,0,1,4.2,1.2,8,8,0,0,1,5.6-4.2v-1.5a8,8,0,0,1,8-8h9a8.17,8.17,0,0,1,7.5,5.1h2.4a8.16,8.16,0,0,1,6.7,3.6h4.2a8,8,0,0,1,8,8v2.2h2.5a8,8,0,0,1,8,8v1.2L788,388C792.5,388.1,791,392.5,791,397Z"/></clipPath><clipPath id="clip-path-41" transform="translate(-122.2 -150.2)"><path class="cls-1" d="M805.3,411a4.68,4.68,0,0,1-2.8.9H741.9v-.6h61.2A7.8,7.8,0,0,0,805.3,411Z"/></clipPath><clipPath id="clip-path-42" transform="translate(-122.2 -150.2)"><path class="cls-1" d="M567.4,388.4c-.1.2-.1.4-.2.6H546.4a7.17,7.17,0,0,1,2.9-.6Z"/></clipPath><clipPath id="clip-path-43" transform="translate(-122.2 -150.2)"><path class="cls-1" d="M614.4,373.6c-.3-.4-.5-.7-.6-.8l-3.4-4.3c-.6-.8-1.7-2.1-2.8-2s-1.4,1.5-1.5,2.4a26.2,26.2,0,0,0,0,5.6c1.4,17.9.5,25.1.5,25.1s.2,1.4.8-1.5.5-27.1,3-25.4c1.6,1.1,3.3,2.2,4.9,3.2.4.2,1,.6,1.4.5A20.11,20.11,0,0,1,614.4,373.6Z"/></clipPath><clipPath id="clip-path-44" transform="translate(-122.2 -150.2)"><path class="cls-1" d="M761.9,386.7c-.3-.1-.5-.3-.6-.3l-3.4-1.5a7.22,7.22,0,0,0-2.8-.7c-1.1,0-1.4.5-1.5.9a3.4,3.4,0,0,0,0,2c1.4,6.3.5,8.9.5,8.9s.2.5.8-.5.5-9.5,3-9c1.6.4,3.3.8,4.9,1.1a6.75,6.75,0,0,0,1.4.2C763.4,387.4,762.6,387.1,761.9,386.7Z"/></clipPath><clipPath id="clip-path-45" transform="translate(-122.2 -150.2)"><path class="cls-1" d="M599.4,382.7c-2.2-.2-4.3-.2-6.5-.2-1.1,0-2.2,0-3.3-.1a7.08,7.08,0,0,0-2.9,0c-.7.2-.8.5-.9.9-.4,2.4.6,4.9.8,7.3a12,12,0,0,1-.2,3.8c0,.1-.2.3-.1.5,0,0,.2.5.8-.6a6.72,6.72,0,0,0,.4-2.4c.1-1.4.2-2.8.4-4.1a13,13,0,0,1,.7-3.3c.1-.3,0-1,1-1.1a2.15,2.15,0,0,1,.8,0c2.2,0,4.5,0,6.7.2,1,0,1.9.1,2.9.1.2,0,2.8-.2,2.7-.2A6.69,6.69,0,0,0,599.4,382.7Z"/></clipPath><clipPath id="clip-path-46" transform="translate(-122.2 -150.2)"><path class="cls-1" d="M694.9,375.6c-2.2-.2-4.3-.2-6.5-.2-1.1,0-2.2,0-3.3-.1a7.08,7.08,0,0,0-2.9,0c-.7.2-.8.5-.9.9-.4,2.4.6,4.9.8,7.3a12,12,0,0,1-.2,3.8c0,.1-.2.3-.1.5,0,0,.2.5.8-.6a6.72,6.72,0,0,0,.4-2.4c.1-1.4.2-2.8.4-4.1a13,13,0,0,1,.7-3.3c.1-.3,0-1,1-1.1h.8c2.2,0,4.5,0,6.7.2,1,0,1.9.1,2.9.1.2,0,2.8-.2,2.7-.2A6.69,6.69,0,0,0,694.9,375.6Z"/></clipPath><clipPath id="clip-path-47" transform="translate(-122.2 -150.2)"><path class="cls-1" d="M299.1,330.4a23.48,23.48,0,0,1,6.5-.4,9.26,9.26,0,0,0,3.3-.3,3.28,3.28,0,0,1,2.9,0,2.81,2.81,0,0,1,.9,2.3c.4,6.4-.6,12.9-.8,19.3a83.46,83.46,0,0,0,.2,10,4.87,4.87,0,0,1,.1,1.2s-.2,1.4-.8-1.5a45.83,45.83,0,0,1-.4-6.4c-.1-3.6-.2-7.3-.4-10.9a85,85,0,0,0-.7-8.7c-.1-.9,0-2.5-1-2.9a2.2,2.2,0,0,0-.8-.1,50.2,50.2,0,0,0-6.7.4,14.08,14.08,0,0,1-2.9.1,13.1,13.1,0,0,1-2.7-.6C296.4,331.1,298.1,330.7,299.1,330.4Z"/></clipPath><clipPath id="clip-path-48" transform="translate(-122.2 -150.2)"><path class="cls-1" d="M384.6,354.4a5.44,5.44,0,0,0,.4-.8l2.5-4.3c.5-.8,1.2-2.1,2.1-2s1,1.5,1.1,2.4a52.3,52.3,0,0,1,0,5.6c-1,17.9-.3,25.1-.3,25.1s-.1,1.4-.6-1.5-.4-27.1-2.2-25.4c-1.2,1.1-2.4,2.2-3.6,3.2-.3.2-.7.6-1,.5C383.5,356.3,384.1,355.3,384.6,354.4Z"/></clipPath><clipPath id="clip-path-49" transform="translate(-122.2 -150.2)"><path class="cls-1" d="M219.4,370.4c.3-.1.5-.3.6-.3l3.4-1.5a7.22,7.22,0,0,1,2.8-.7c1.1,0,1.4.5,1.5.9a3.4,3.4,0,0,1,0,2c-1.4,6.3-.5,8.9-.5,8.9s-.2.5-.8-.5-.5-9.5-3-9c-1.6.4-3.3.8-4.9,1.1a6.75,6.75,0,0,1-1.4.2A15.77,15.77,0,0,1,219.4,370.4Z"/></clipPath><clipPath id="clip-path-50" transform="translate(-122.2 -150.2)"><path class="cls-1" d="M264.8,345.7c2.2-.2,4.3-.2,6.5-.2,1.1,0,2.2,0,3.3-.1a7.08,7.08,0,0,1,2.9,0c.7.2.9.5.9.9.4,2.4-.6,4.9-.8,7.3a12,12,0,0,0,.2,3.8c0,.1.2.3.1.5,0,0-.2.5-.8-.6a6.72,6.72,0,0,1-.4-2.4c-.1-1.4-.2-2.8-.4-4.1a13,13,0,0,0-.7-3.3c-.1-.3,0-1-1-1.1a2.15,2.15,0,0,0-.8,0c-2.2,0-4.5,0-6.7.2-1,0-1.9.1-2.9.1-.2,0-2.8-.2-2.7-.2A6.69,6.69,0,0,1,264.8,345.7Z"/></clipPath><clipPath id="clip-path-51" transform="translate(-122.2 -150.2)"><path class="cls-1" d="M319.5,347.1c.3-.1.5-.3.6-.3l3.4-1.5a7.22,7.22,0,0,1,2.8-.7c1.1,0,1.4.5,1.5.9a3.4,3.4,0,0,1,0,2c-1.4,6.3-.5,8.9-.5,8.9s-.2.5-.8-.5-.5-9.5-3-9c-1.6.4-3.3.8-4.9,1.1a6.75,6.75,0,0,1-1.4.2C317.4,348.1,318.7,347.5,319.5,347.1Z"/></clipPath><clipPath id="clip-path-52" transform="translate(-122.2 -150.2)"><path class="cls-1" d="M352.2,346.8c.2-.1.3-.2.4-.2l2.1-.9a3.66,3.66,0,0,1,1.8-.4c.7,0,.9.3,1,.5a2.44,2.44,0,0,1,0,1.2c-.9,3.9-.3,5.5-.3,5.5s-.1.3-.5-.3-.3-5.9-1.8-5.6c-1,.2-2,.5-3.1.7a2.77,2.77,0,0,1-.9.1C351.3,347.2,351.8,347,352.2,346.8Z"/></clipPath><clipPath id="clip-path-53" transform="translate(-122.2 -150.2)"><path class="cls-1" d="M365.4,342.7a23.48,23.48,0,0,1,6.5-.4,9.26,9.26,0,0,0,3.3-.3,3.28,3.28,0,0,1,2.9,0,2.81,2.81,0,0,1,.9,2.3c.4,6.4-.6,12.9-.8,19.3a83.46,83.46,0,0,0,.2,10,4.87,4.87,0,0,1,.1,1.2s-.2,1.4-.8-1.5a45.83,45.83,0,0,1-.4-6.4c-.1-3.6-.2-7.3-.4-10.9a85,85,0,0,0-.7-8.7c-.1-.9,0-2.5-1-2.9a2.2,2.2,0,0,0-.8-.1,50.2,50.2,0,0,0-6.7.4,14.08,14.08,0,0,1-2.9.1,13.1,13.1,0,0,1-2.7-.6C362.6,343.4,364.4,343,365.4,342.7Z"/></clipPath><clipPath id="clip-path-54" transform="translate(-122.2 -150.2)"><path class="cls-1" d="M406.5,363.4a35,35,0,0,1,6.5-.3,18.29,18.29,0,0,0,3.3-.2,4.78,4.78,0,0,1,2.9,0,1.51,1.51,0,0,1,.9,1.4c.4,4.1-.6,8.2-.8,12.3a34.26,34.26,0,0,0,.2,6.4c0,.2.2.5.1.8,0,0-.2.9-.8-.9a18.4,18.4,0,0,1-.4-4.1c-.1-2.3-.2-4.6-.4-6.9a34.49,34.49,0,0,0-.7-5.5c-.1-.6,0-1.6-1-1.9a2.2,2.2,0,0,0-.8-.1c-2.2,0-4.5.1-6.7.3a17.61,17.61,0,0,1-5.6-.3C403.8,363.8,405.6,363.5,406.5,363.4Z"/></clipPath><clipPath id="clip-path-55" transform="translate(-122.2 -150.2)"><path class="cls-1" d="M432.9,375c3.3-.2,6.6-.2,9.9-.2,1.7,0,3.4,0,5-.1a16.2,16.2,0,0,1,4.4,0c1.1.2,1.3.6,1.4,1,.7,2.7-1,5.5-1.2,8.2a12.46,12.46,0,0,0,.2,4.3c0,.1.3.4.2.5s-.3.6-1.3-.6c-.7-.9-.5-1.8-.6-2.7-.2-1.5-.3-3.1-.6-4.6a12,12,0,0,0-1-3.7c-.2-.4,0-1.1-1.5-1.2-.4,0-.8-.1-1.2-.1-3.5,0-6.9,0-10.3.2-1.5.1-2.9.1-4.4.1-.3,0-4.2-.2-4.1-.3A23.46,23.46,0,0,1,432.9,375Z"/></clipPath><clipPath id="clip-path-56" transform="translate(-122.2 -150.2)"><path class="cls-1" d="M749.9,374.7c-.3-.1-.5-.3-.6-.3l-3.4-1.5a7.22,7.22,0,0,0-2.8-.7c-1.1,0-1.4.5-1.5.9a3.4,3.4,0,0,0,0,2c1.4,6.3.5,8.9.5,8.9s.2.5.8-.5.5-9.5,3-9c1.6.4,3.3.8,5,1.1a6.75,6.75,0,0,0,1.4.2C751.4,375.4,750.6,375,749.9,374.7Z"/></clipPath><clipPath id="clip-path-57" transform="translate(-122.2 -150.2)"><path class="cls-1" d="M579.8,389.8c-.3-.1-.5-.3-.6-.3l-3.4-1.5a7.22,7.22,0,0,0-2.8-.7c-1.1,0-1.4.5-1.5.9a3.4,3.4,0,0,0,0,2c1.4,6.3.5,8.9.5,8.9s.2.5.8-.5.5-9.5,3-9c1.6.4,3.3.8,4.9,1.1a6.75,6.75,0,0,0,1.4.2C581.9,390.8,580.6,390.2,579.8,389.8Z"/></clipPath><clipPath id="clip-path-58" transform="translate(-122.2 -150.2)"><path class="cls-1" d="M728.8,364.5a23.48,23.48,0,0,0-6.5-.4,9.26,9.26,0,0,1-3.3-.3,3.28,3.28,0,0,0-2.9,0,2.81,2.81,0,0,0-.9,2.3c-.4,6.4.6,12.9.8,19.3a83.46,83.46,0,0,1-.2,10,4.87,4.87,0,0,0-.1,1.2s.2,1.4.8-1.5a45.83,45.83,0,0,0,.4-6.4c.1-3.6.2-7.3.4-10.9a85,85,0,0,1,.7-8.7c.1-.9,0-2.5,1-2.9a2.2,2.2,0,0,1,.8-.1,50.2,50.2,0,0,1,6.7.4,14.08,14.08,0,0,0,2.9.1,13.1,13.1,0,0,0,2.7-.6C731.5,365.2,729.7,364.7,728.8,364.5Z"/></clipPath><clipPath id="clip-path-59" transform="translate(-122.2 -150.2)"><path class="cls-1" d="M295.7,358.1c.3-.4.5-.7.6-.8l3.4-4.3c.6-.8,1.7-2.1,2.8-2s1.4,1.5,1.5,2.4a26.2,26.2,0,0,1,0,5.6c-1.4,17.9-.5,25.1-.5,25.1s-.2,1.4-.8-1.5-.5-27.1-3-25.4c-1.6,1.1-3.3,2.2-4.9,3.2-.4.2-1,.6-1.4.5A20.11,20.11,0,0,0,295.7,358.1Z"/></clipPath><clipPath id="clip-path-60" transform="translate(-122.2 -150.2)"><path class="cls-1" d="M356,365.8c.3-.4.5-.7.6-.8l3.4-4.3c.6-.8,1.7-2.1,2.8-2s1.4,1.5,1.5,2.4a26.2,26.2,0,0,1,0,5.6c-1.4,17.9-.5,25.1-.5,25.1s-.2,1.4-.8-1.5-.5-27.1-3-25.4c-1.6,1.1-3.3,2.2-5,3.2-.4.2-1,.6-1.4.5A15.53,15.53,0,0,0,356,365.8Z"/></clipPath><clipPath id="clip-path-61" transform="translate(-122.2 -150.2)"><path class="cls-1" d="M263.7,365.9c.3-.4.5-.7.6-.8l3.4-4.3c.6-.8,1.7-2.1,2.8-2s1.4,1.5,1.5,2.4a26.2,26.2,0,0,1,0,5.6c-1.4,17.9-.5,25.1-.5,25.1s-.2,1.4-.8-1.5-.5-27.1-3-25.4c-1.6,1.1-3.3,2.2-4.9,3.2-.4.2-1,.6-1.4.5A15.6,15.6,0,0,0,263.7,365.9Z"/></clipPath></defs><path class="cls-2" d="M192.64,403.11C181.76,406.65,172.45,386,161,386c-31,0-25.8,30.33-26.34,41.76-.62,13.32,13.74,21.4,24.44,29.37a79.63,79.63,0,0,1,31.16,54.1c.77,6.71.78,13.86,4.39,19.56,4.76,7.53,14.27,10.27,23,12.12a400.72,400.72,0,0,0,62.86,8.27c11.12.57,22.6.76,32.76,5.31,12.66,5.67,21.53,17.33,32.92,25.25,16.07,11.18,36.5,14.42,56.06,13.58s38.73-5.38,58.06-8.43a381.27,381.27,0,0,1,132.8,2.51c17.58,3.46,35.91,8.14,53.06,3,38.75-11.61,48.5-63.8,81.8-86.77,9-6.19,19.55-10.12,27.5-17.57,9.08-8.51,13.81-20.74,22.33-29.81,6.7-7.14,15.57-12.12,21.64-19.82,7.26-9.2,13.21-21.75,14.46-33.46,1.71-16-12.64-22-25.89-24-19.59-2.92-41,6-61,20.7-40.17,29.5-96.43,28.06-146.26,28.94-54.48,1-105.88-28-160.37-28.85-17-.25-33.88,2.24-50.86,2.64-56.8,1.32-114-20.8-169.46-8.4" transform="translate(-122.2 -150.2)"/><g class="cls-3"><rect class="cls-4" x="289.8" y="86.86" width="280.6" height="160.2"/></g><g class="cls-5"><rect class="cls-6" x="452.4" y="226.8" width="215.8" height="10.4"/></g><g class="cls-7"><rect class="cls-6" x="68.1" width="617.1" height="247.4"/></g><g class="cls-8"><rect class="cls-6" x="647.3" y="206.5" width="11.1" height="10.8"/></g><g class="cls-8"><rect class="cls-6" x="647.3" y="206.5" width="11.1" height="10.8"/></g><g class="cls-9"><rect class="cls-10" x="466.74" y="178.79" width="166.36" height="18.61"/></g><g class="cls-11"><rect class="cls-10" x="465.45" y="157.92" width="166.95" height="24.78"/></g><g class="cls-12"><rect class="cls-10" x="461.1" y="199.4" width="197.22" height="27.8"/></g><g class="cls-13"><rect class="cls-10" x="181.99" y="173.4" width="247.21" height="21.6"/></g><g class="cls-14"><rect class="cls-10" x="125.81" y="201.02" width="305.09" height="24.78"/></g><g class="cls-15"><rect class="cls-10" x="176.11" y="146.59" width="203.89" height="22.01"/></g><g class="cls-16"><rect class="cls-10" x="510.9" y="11.1" width="15.5" height="106.3"/></g><g class="cls-17"><rect class="cls-10" x="530.79" y="30.35" width="13.13" height="117.05"/></g><g class="cls-18"><rect class="cls-10" x="549.6" y="31.3" width="14.3" height="111.6"/></g><g class="cls-19"><rect class="cls-10" x="563.25" y="53.15" width="12.57" height="89.35"/></g><g class="cls-20"><rect class="cls-10" x="541.4" y="23.83" width="23.6" height="37.14"/></g><g class="cls-21"><rect class="cls-10" x="567.83" y="20.65" width="22.27" height="26.92"/></g><g class="cls-22"><rect class="cls-10" x="504.7" y="1.43" width="23.6" height="37.14"/></g><g class="cls-23"><rect class="cls-10" x="573.2" y="35.3" width="15.1" height="111.6"/></g><g class="cls-24"><rect class="cls-10" x="326.3" y="60.63" width="23.6" height="37.14"/></g><g class="cls-25"><rect class="cls-10" x="311.6" y="33.63" width="23.07" height="37.14"/></g><g class="cls-26"><rect class="cls-10" x="263.5" y="52.13" width="23.07" height="37.14"/></g><g class="cls-27"><rect class="cls-10" x="335.7" y="92.6" width="20.75" height="21.92"/></g><g class="cls-28"><rect class="cls-10" x="285.9" y="68.8" width="18.35" height="21.92"/></g><g class="cls-29"><rect class="cls-10" x="203.9" y="80.1" width="16.38" height="21.92"/></g><g class="cls-30"><rect class="cls-10" x="208.8" y="97.7" width="16.38" height="21.93"/></g><g class="cls-31"><rect class="cls-10" x="233.1" y="72.8" width="16.38" height="21.92"/></g><g class="cls-32"><rect class="cls-10" x="265.8" y="63.47" width="13.33" height="80.13"/></g><g class="cls-33"><rect class="cls-10" x="281.1" y="81.3" width="15.5" height="75.5"/></g><g class="cls-34"><rect class="cls-10" x="315.65" y="47.46" width="11.68" height="94.24"/></g><g class="cls-35"><rect class="cls-10" x="327" y="68.97" width="12.43" height="80.13"/></g><g class="cls-36"><rect class="cls-10" x="246.3" y="78.38" width="12.43" height="65.92"/></g><g class="cls-37"><rect class="cls-10" x="243" y="62.1" width="16.38" height="21.92"/></g><g class="cls-38"><rect class="cls-10" x="232.96" y="80.28" width="12.17" height="48.42"/></g><g class="cls-39"><rect class="cls-10" x="202.56" y="90.78" width="11.97" height="70.02"/></g><g class="cls-40"><rect class="cls-10" x="194.76" y="87.28" width="11.97" height="70.02"/></g><g class="cls-41"><rect class="cls-10" x="277.9" y="63.2" width="18.35" height="15.35"/></g><g class="cls-42"><rect class="cls-10" x="198.2" y="68.8" width="16.38" height="18.9"/></g><g class="cls-43"><rect class="cls-10" x="525.92" y="25.1" width="16.67" height="21.92"/></g><g class="cls-44"><path class="cls-2" d="M122.2,321.6V442.9H816.1V321.6ZM152,432c10-19,24-34,35-52C176,398,162,413,152,432Z" transform="translate(-122.2 -150.2)"/></g><g class="cls-45"><rect class="cls-2" x="614.7" y="255.8" width="73.4" height="10.9"/></g><g class="cls-46"><rect class="cls-2" x="419.2" y="233.2" width="31" height="10.6"/></g><g class="cls-47"><rect class="cls-6" x="478.75" y="211.29" width="20.75" height="43.44"/></g><g class="cls-48"><rect class="cls-6" x="626.25" y="229" width="20.75" height="21.93"/></g><g class="cls-49"><rect class="cls-6" x="458.51" y="227.05" width="27" height="22.76"/></g><g class="cls-50"><rect class="cls-6" x="554.01" y="219.95" width="27" height="22.76"/></g><g class="cls-51"><rect class="cls-6" x="168.6" y="174.15" width="26.99" height="43.48"/></g><g class="cls-52"><rect class="cls-6" x="255.8" y="192.09" width="17.77" height="43.44"/></g><g class="cls-53"><rect class="cls-6" x="89.9" y="212.7" width="20.75" height="21.93"/></g><g class="cls-54"><rect class="cls-6" x="134.3" y="190.05" width="27" height="22.76"/></g><g class="cls-55"><rect class="cls-6" x="190" y="189.4" width="20.75" height="21.93"/></g><g class="cls-56"><rect class="cls-6" x="223.7" y="190.1" width="16.67" height="17.27"/></g><g class="cls-57"><rect class="cls-6" x="234.9" y="186.45" width="26.99" height="43.48"/></g><g class="cls-58"><rect class="cls-6" x="276" y="207.47" width="26.99" height="31.35"/></g><g class="cls-59"><rect class="cls-6" x="300.6" y="219.35" width="35.97" height="24.3"/></g><g class="cls-60"><rect class="cls-6" x="614.25" y="217" width="20.85" height="21.93"/></g><g class="cls-61"><rect class="cls-6" x="444.15" y="232.1" width="20.75" height="21.92"/></g><g class="cls-62"><rect class="cls-6" x="587.91" y="208.25" width="26.99" height="43.48"/></g><g class="cls-63"><rect class="cls-6" x="166.2" y="195.79" width="20.75" height="43.44"/></g><g class="cls-64"><rect class="cls-6" x="226.4" y="203.49" width="20.85" height="43.44"/></g><g class="cls-65"><rect class="cls-6" x="134.2" y="203.59" width="20.75" height="43.44"/></g><path class="cls-1" d="M416,610c35.1,3.83,98.53-3,103-3,17.45,0,28.22-20.65,35-34.13,8.54-16.94,20.69-35.9,23.43-54.9,2.91-20.2-6.62-45-25-55-16-8.72-35.8-12.35-53.5-16.28a55.35,55.35,0,0,1-15.31-6.38c-43.4-27.44,59.35-40.21,74-42.12h.64a15.07,15.07,0,0,0,10.21-4.47,22.56,22.56,0,0,0-12.12-3.83c-24.89-1.27-49.14.64-73.39,4.47-22.34,3.19-46,6.38-65.73,17.87a24.74,24.74,0,0,0-12.76,16c-5.11,22.34,24.25,31.91,38.92,40.84C472.19,487.57,429.08,590,334,583c-1.91,0-6.51,27.28-18,26l36-13C391.57,601.11,374.52,603,416,610Z" transform="translate(-122.2 -150.2)"/><path class="cls-66" d="M488.27,413.56c22-9.35,60.83-14.21,69.43-15.33h.64a15.07,15.07,0,0,0,10.21-4.47,22.56,22.56,0,0,0-12.12-3.83c-24.89-1.27-49.14.64-73.39,4.47-14.71,2.1-30,4.22-44.32,8.69C455.41,405.09,471.86,409.14,488.27,413.56Z" transform="translate(-122.2 -150.2)"/><path class="cls-66" d="M322.05,606.82,316,609A7.73,7.73,0,0,0,322.05,606.82Z" transform="translate(-122.2 -150.2)"/><path class="cls-66" d="M520.89,606.91l-.43,0Z" transform="translate(-122.2 -150.2)"/><path class="cls-66" d="M528.19,605l-.28.11Z" transform="translate(-122.2 -150.2)"/><polygon class="cls-66" points="199.85 456.62 199.85 456.62 199.85 456.62 199.85 456.62"/><path class="cls-66" d="M523.76,606.47l-.18,0Z" transform="translate(-122.2 -150.2)"/><path class="cls-66" d="M526.89,605.52l-.42.15Z" transform="translate(-122.2 -150.2)"/><path class="cls-66" d="M525.5,606l-.38.12Z" transform="translate(-122.2 -150.2)"/><path class="cls-66" d="M522.37,606.73l-.44.06Z" transform="translate(-122.2 -150.2)"/><path class="cls-66" d="M316,609a7.73,7.73,0,0,0,6.05-2.18Z" transform="translate(-122.2 -150.2)"/><path class="cls-66" d="M334,583c1.34.1,2.67.17,4,.23C336.67,583.17,335.34,583.1,334,583Z" transform="translate(-122.2 -150.2)"/><path class="cls-66" d="M344.52,583.32h0Z" transform="translate(-122.2 -150.2)"/><path class="cls-66" d="M333.83,583.07l-.06,0Z" transform="translate(-122.2 -150.2)"/><path class="cls-66" d="M341.72,583.32l-1.63,0Z" transform="translate(-122.2 -150.2)"/><path class="cls-66" d="M332.9,584.77l0,.07Z" transform="translate(-122.2 -150.2)"/><path class="cls-66" d="M333.43,583.61l-.06.1Z" transform="translate(-122.2 -150.2)"/><path class="cls-66" d="M332.62,585.5v0Z" transform="translate(-122.2 -150.2)"/><path class="cls-66" d="M333.64,583.27l-.07.09Z" transform="translate(-122.2 -150.2)"/><path class="cls-66" d="M538.54,597.2l-.42.45Z" transform="translate(-122.2 -150.2)"/><path class="cls-66" d="M541.85,593.3c-.15.2-.3.4-.46.59C541.55,593.7,541.7,593.5,541.85,593.3Z" transform="translate(-122.2 -150.2)"/><path class="cls-66" d="M544.09,590.25c-.3.43-.6.86-.91,1.28C543.49,591.11,543.79,590.68,544.09,590.25Z" transform="translate(-122.2 -150.2)"/><path class="cls-66" d="M542.78,592.09l-.48.63Z" transform="translate(-122.2 -150.2)"/><path class="cls-66" d="M540.81,594.6q-.27.35-.57.69Q540.54,594.94,540.81,594.6Z" transform="translate(-122.2 -150.2)"/><path class="cls-66" d="M547.74,584.54c-.58,1-1.19,2-1.82,3C546.55,586.52,547.16,585.53,547.74,584.54Z" transform="translate(-122.2 -150.2)"/><path class="cls-66" d="M539.56,596.08l-.42.47Z" transform="translate(-122.2 -150.2)"/><path class="cls-66" d="M545.73,587.81l-.54.82Z" transform="translate(-122.2 -150.2)"/><path class="cls-66" d="M544.91,589c-.17.27-.35.53-.53.79C544.56,589.57,544.74,589.31,544.91,589Z" transform="translate(-122.2 -150.2)"/><path class="cls-66" d="M532.28,602.66l-.33.21Z" transform="translate(-122.2 -150.2)"/><path class="cls-66" d="M529.77,604.19l-.34.18Z" transform="translate(-122.2 -150.2)"/><path class="cls-66" d="M531.08,603.43l-.41.25Z" transform="translate(-122.2 -150.2)"/><path class="cls-66" d="M533.72,601.61l-.3.24Z" transform="translate(-122.2 -150.2)"/><path class="cls-66" d="M552.49,463c-16-8.72-35.8-12.35-53.5-16.28a55.35,55.35,0,0,1-15.31-6.38c-43.4-27.44,59.35-40.21,74-42.12h.64a15.07,15.07,0,0,0,10.21-4.47,22.56,22.56,0,0,0-12.12-3.83c-24.89-1.27-49.14.64-73.39,4.47-22.34,3.19-46,6.38-65.73,17.87a24.74,24.74,0,0,0-12.76,16c-5.11,22.34,24.25,31.91,38.92,40.84,27.22,17.54-10.1,110.49-95,114.16,15.7,10,35.15,12.9,53.81,12.1,19.55-.83,38.73-5.38,58.06-8.43a381.2,381.2,0,0,1,88.13-3.53c-.2.35-.4.7-.61,1,2.37-4,4.42-8,6.2-11.54,8.54-16.94,20.69-35.9,23.43-54.9C580.36,497.77,570.83,473,552.49,463Z" transform="translate(-122.2 -150.2)"/><path class="cls-66" d="M537.09,598.69l.3-.3Z" transform="translate(-122.2 -150.2)"/><path class="cls-66" d="M535,600.62l-.41.34Z" transform="translate(-122.2 -150.2)"/><path class="cls-66" d="M536.07,599.65l-.38.33Z" transform="translate(-122.2 -150.2)"/><path class="cls-67" d="M474,583s.61-.65,1.68-1.84" transform="translate(-122.2 -150.2)"/><path class="cls-68" d="M482.05,573.69c19.59-24,63.75-87.56.95-107.69,0,0-128.67-53.61,58.63-71.34" transform="translate(-122.2 -150.2)"/><path class="cls-67" d="M546.51,394.22,549,394" transform="translate(-122.2 -150.2)"/><path d="M557.66,297.65c1.78.58,3.56,1.21,5.34,1.84l0-6.14c-1.78-.63-3.55-1.26-5.34-1.84Z" transform="translate(-122.2 -150.2)"/><path class="cls-69" d="M552.32,296.17c1.79.39,3.56.91,5.34,1.48l0-6.14c-1.77-.57-3.55-1.09-5.34-1.48Z" transform="translate(-122.2 -150.2)"/><path d="M547,295.36a36.4,36.4,0,0,1,5.35.81l0-6.14a36.27,36.27,0,0,0-5.34-.81Q547,292.28,547,295.36Z" transform="translate(-122.2 -150.2)"/><path class="cls-69" d="M541.62,295.41a31.86,31.86,0,0,1,5.35-.05q0-3.08,0-6.14a31.85,31.85,0,0,0-5.35,0Z" transform="translate(-122.2 -150.2)"/><path d="M536.27,296.29a39.51,39.51,0,0,1,5.35-.88l0-6.14a39.65,39.65,0,0,0-5.36.88Z" transform="translate(-122.2 -150.2)"/><path class="cls-69" d="M530.91,297.8c1.78-.57,3.57-1.09,5.36-1.51l0-6.14c-1.79.42-3.57.94-5.36,1.51Z" transform="translate(-122.2 -150.2)"/><path d="M525.55,299.58c1.79-.59,3.57-1.21,5.36-1.78l0-6.14c-1.79.57-3.57,1.19-5.36,1.78Z" transform="translate(-122.2 -150.2)"/><path class="cls-69" d="M520.19,301.22c1.79-.48,3.58-1.05,5.36-1.64l0-6.14c-1.78.59-3.56,1.16-5.36,1.64Z" transform="translate(-122.2 -150.2)"/><path d="M514.84,302.32a43.79,43.79,0,0,0,5.35-1.1l0-6.14a43.79,43.79,0,0,1-5.35,1.1Z" transform="translate(-122.2 -150.2)"/><path class="cls-69" d="M509.48,302.64a33.19,33.19,0,0,0,5.36-.32l0-6.14a33.13,33.13,0,0,1-5.35.32Q509.51,299.56,509.48,302.64Z" transform="translate(-122.2 -150.2)"/><path d="M504.14,302.08a34.43,34.43,0,0,0,5.34.56q0-3.08,0-6.14a34.56,34.56,0,0,1-5.35-.56Z" transform="translate(-122.2 -150.2)"/><path class="cls-69" d="M498.79,300.77a49,49,0,0,0,5.35,1.31l0-6.14a48.32,48.32,0,0,1-5.34-1.31C498.82,296.68,498.81,298.72,498.79,300.77Z" transform="translate(-122.2 -150.2)"/><path d="M493.45,299c1.78.62,3.56,1.23,5.34,1.77,0-2,0-4.09,0-6.14-1.79-.54-3.56-1.15-5.34-1.77C493.48,294.91,493.47,297,493.45,299Z" transform="translate(-122.2 -150.2)"/><path class="cls-69" d="M557.63,303.79c1.78.58,3.56,1.21,5.34,1.84l0-6.14c-1.78-.63-3.56-1.26-5.34-1.84Z" transform="translate(-122.2 -150.2)"/><path d="M552.29,302.31c1.78.39,3.56.91,5.34,1.48l0-6.14c-1.78-.57-3.55-1.09-5.34-1.48Z" transform="translate(-122.2 -150.2)"/><path class="cls-69" d="M546.94,301.5a36.4,36.4,0,0,1,5.35.81l0-6.14a36.4,36.4,0,0,0-5.35-.81Z" transform="translate(-122.2 -150.2)"/><path d="M541.59,301.55a31.86,31.86,0,0,1,5.35-.05l0-6.14a31.86,31.86,0,0,0-5.35.05Z" transform="translate(-122.2 -150.2)"/><path class="cls-69" d="M536.23,302.43a39.65,39.65,0,0,1,5.36-.88l0-6.14a39.51,39.51,0,0,0-5.35.88C536.26,298.34,536.25,300.38,536.23,302.43Z" transform="translate(-122.2 -150.2)"/><path d="M530.88,303.94c1.78-.57,3.56-1.09,5.35-1.51,0-2.05,0-4.09,0-6.14-1.79.42-3.58.94-5.36,1.51Z" transform="translate(-122.2 -150.2)"/><path class="cls-69" d="M525.52,305.72c1.79-.59,3.57-1.21,5.36-1.78l0-6.14c-1.79.57-3.57,1.19-5.36,1.78Z" transform="translate(-122.2 -150.2)"/><path d="M520.16,307.36c1.79-.48,3.57-1.05,5.36-1.64l0-6.14c-1.78.59-3.57,1.16-5.36,1.64Z" transform="translate(-122.2 -150.2)"/><path class="cls-69" d="M514.8,308.46a43.94,43.94,0,0,0,5.36-1.1l0-6.14a43.79,43.79,0,0,1-5.35,1.1C514.83,304.37,514.81,306.42,514.8,308.46Z" transform="translate(-122.2 -150.2)"/><path d="M509.45,308.78a33.13,33.13,0,0,0,5.35-.32c0-2,0-4.09,0-6.14a33.19,33.19,0,0,1-5.36.32Z" transform="translate(-122.2 -150.2)"/><path class="cls-69" d="M504.1,308.22a34.69,34.69,0,0,0,5.35.56l0-6.14a34.43,34.43,0,0,1-5.34-.56C504.13,304.13,504.12,306.17,504.1,308.22Z" transform="translate(-122.2 -150.2)"/><path d="M498.76,306.91a49.45,49.45,0,0,0,5.34,1.31c0-2.05,0-4.09,0-6.14a49,49,0,0,1-5.35-1.31Z" transform="translate(-122.2 -150.2)"/><path class="cls-69" d="M493.42,305.14c1.78.62,3.56,1.23,5.34,1.77l0-6.14c-1.78-.54-3.56-1.15-5.34-1.77Z" transform="translate(-122.2 -150.2)"/><path d="M557.59,309.93c1.79.58,3.56,1.21,5.34,1.84,0-2,0-4.09,0-6.14-1.78-.63-3.56-1.26-5.34-1.84Z" transform="translate(-122.2 -150.2)"/><path class="cls-69" d="M552.25,308.45c1.79.39,3.57.91,5.34,1.48l0-6.14c-1.78-.57-3.56-1.09-5.34-1.48Z" transform="translate(-122.2 -150.2)"/><path d="M546.91,307.64a36.27,36.27,0,0,1,5.34.81l0-6.14a36.4,36.4,0,0,0-5.35-.81Z" transform="translate(-122.2 -150.2)"/><path class="cls-69" d="M541.56,307.69a31.86,31.86,0,0,1,5.35-.05l0-6.14a31.86,31.86,0,0,0-5.35.05Z" transform="translate(-122.2 -150.2)"/><path d="M536.2,308.57a39.65,39.65,0,0,1,5.36-.88l0-6.14a39.65,39.65,0,0,0-5.36.88Z" transform="translate(-122.2 -150.2)"/><path class="cls-69" d="M530.84,310.08c1.79-.57,3.57-1.09,5.36-1.51l0-6.14c-1.79.42-3.57.94-5.35,1.51C530.87,306,530.86,308,530.84,310.08Z" transform="translate(-122.2 -150.2)"/><path d="M525.48,311.86c1.79-.59,3.57-1.21,5.36-1.78,0-2.05,0-4.09,0-6.14-1.79.57-3.57,1.19-5.36,1.78Q525.51,308.79,525.48,311.86Z" transform="translate(-122.2 -150.2)"/><path class="cls-69" d="M520.13,313.5c1.79-.48,3.57-1.05,5.35-1.64q0-3.06,0-6.14c-1.79.59-3.57,1.16-5.36,1.64Z" transform="translate(-122.2 -150.2)"/><path d="M514.77,314.6a43.94,43.94,0,0,0,5.36-1.1l0-6.14a43.94,43.94,0,0,1-5.36,1.1Z" transform="translate(-122.2 -150.2)"/><path class="cls-69" d="M509.42,314.92a33.13,33.13,0,0,0,5.35-.32l0-6.14a33.13,33.13,0,0,1-5.35.32Z" transform="translate(-122.2 -150.2)"/><path d="M504.07,314.36a34.56,34.56,0,0,0,5.35.56l0-6.14a34.69,34.69,0,0,1-5.35-.56Z" transform="translate(-122.2 -150.2)"/><path class="cls-69" d="M498.73,313.05a48.32,48.32,0,0,0,5.34,1.31l0-6.14a49.45,49.45,0,0,1-5.34-1.31Z" transform="translate(-122.2 -150.2)"/><path d="M493.39,311.28c1.78.62,3.55,1.23,5.34,1.77l0-6.14c-1.78-.54-3.56-1.15-5.34-1.77Z" transform="translate(-122.2 -150.2)"/><path class="cls-69" d="M557.56,316.07c1.79.58,3.56,1.21,5.34,1.84l0-6.14c-1.78-.63-3.55-1.26-5.34-1.84Z" transform="translate(-122.2 -150.2)"/><path d="M552.22,314.59c1.79.39,3.57.91,5.34,1.48l0-6.14c-1.77-.57-3.55-1.09-5.34-1.48Z" transform="translate(-122.2 -150.2)"/><path class="cls-69" d="M546.87,313.78a36.4,36.4,0,0,1,5.35.81l0-6.14a36.27,36.27,0,0,0-5.34-.81C546.9,309.68,546.88,311.73,546.87,313.78Z" transform="translate(-122.2 -150.2)"/><path d="M541.52,313.83a31.86,31.86,0,0,1,5.35-.05c0-2,0-4.1,0-6.14a31.86,31.86,0,0,0-5.35.05C541.55,309.73,541.53,311.78,541.52,313.83Z" transform="translate(-122.2 -150.2)"/><path class="cls-69" d="M536.17,314.71a39.77,39.77,0,0,1,5.35-.88c0-2.05,0-4.1,0-6.14a39.65,39.65,0,0,0-5.36.88Z" transform="translate(-122.2 -150.2)"/><path d="M530.81,316.22c1.78-.57,3.57-1.09,5.36-1.51l0-6.14c-1.79.42-3.57.94-5.36,1.51Z" transform="translate(-122.2 -150.2)"/><path class="cls-69" d="M525.45,318c1.79-.59,3.57-1.21,5.36-1.78l0-6.14c-1.79.57-3.57,1.19-5.36,1.78Z" transform="translate(-122.2 -150.2)"/><path d="M520.09,319.64c1.79-.48,3.58-1.05,5.36-1.64l0-6.14c-1.78.59-3.56,1.16-5.35,1.64Z" transform="translate(-122.2 -150.2)"/><path class="cls-69" d="M514.74,320.74a43.79,43.79,0,0,0,5.35-1.1l0-6.14a43.94,43.94,0,0,1-5.36,1.1Z" transform="translate(-122.2 -150.2)"/><path d="M509.39,321.06a33.13,33.13,0,0,0,5.35-.32l0-6.14a33.13,33.13,0,0,1-5.35.32Z" transform="translate(-122.2 -150.2)"/><path class="cls-69" d="M504,320.5a34.56,34.56,0,0,0,5.35.56l0-6.14a34.56,34.56,0,0,1-5.35-.56Z" transform="translate(-122.2 -150.2)"/><path d="M498.7,319.19A48.32,48.32,0,0,0,504,320.5l0-6.14a48.32,48.32,0,0,1-5.34-1.31Z" transform="translate(-122.2 -150.2)"/><path class="cls-69" d="M493.36,317.42c1.77.62,3.55,1.23,5.34,1.77l0-6.14c-1.79-.54-3.56-1.15-5.34-1.77Z" transform="translate(-122.2 -150.2)"/><path d="M557.53,322.21c1.78.58,3.56,1.21,5.34,1.84l0-6.14c-1.78-.63-3.55-1.26-5.34-1.84Z" transform="translate(-122.2 -150.2)"/><path class="cls-69" d="M552.19,320.73c1.78.39,3.56.91,5.34,1.48l0-6.14c-1.77-.57-3.55-1.09-5.34-1.48Z" transform="translate(-122.2 -150.2)"/><path d="M546.84,319.92a36.4,36.4,0,0,1,5.35.81l0-6.14a36.4,36.4,0,0,0-5.35-.81Z" transform="translate(-122.2 -150.2)"/><path class="cls-69" d="M541.49,320a31.86,31.86,0,0,1,5.35-.05l0-6.14a31.86,31.86,0,0,0-5.35.05Z" transform="translate(-122.2 -150.2)"/><path d="M536.14,320.85a39.51,39.51,0,0,1,5.35-.88l0-6.14a39.77,39.77,0,0,0-5.35.88Z" transform="translate(-122.2 -150.2)"/><path class="cls-69" d="M530.78,322.36c1.78-.57,3.56-1.09,5.36-1.51l0-6.14c-1.79.42-3.58.94-5.36,1.51Z" transform="translate(-122.2 -150.2)"/><path d="M525.42,324.14c1.79-.59,3.57-1.21,5.36-1.78l0-6.14c-1.79.57-3.57,1.19-5.36,1.78Z" transform="translate(-122.2 -150.2)"/><path class="cls-69" d="M520.06,325.78c1.79-.48,3.58-1,5.36-1.64l0-6.14c-1.78.59-3.57,1.16-5.36,1.64Z" transform="translate(-122.2 -150.2)"/><path d="M514.7,326.88a43.94,43.94,0,0,0,5.36-1.1l0-6.14a43.79,43.79,0,0,1-5.35,1.1Q514.73,323.82,514.7,326.88Z" transform="translate(-122.2 -150.2)"/><path class="cls-69" d="M509.35,327.2a33.06,33.06,0,0,0,5.35-.32q0-3.06,0-6.14a33.13,33.13,0,0,1-5.35.32Q509.36,324.12,509.35,327.2Z" transform="translate(-122.2 -150.2)"/><path d="M504,326.64a34.43,34.43,0,0,0,5.34.56q0-3.07,0-6.14a34.56,34.56,0,0,1-5.35-.56Z" transform="translate(-122.2 -150.2)"/><path class="cls-69" d="M498.66,325.33a49,49,0,0,0,5.35,1.31l0-6.14a48.32,48.32,0,0,1-5.34-1.31C498.69,321.24,498.67,323.28,498.66,325.33Z" transform="translate(-122.2 -150.2)"/><path d="M493.32,323.56c1.78.62,3.56,1.23,5.34,1.77,0-2.05,0-4.09,0-6.14-1.79-.54-3.57-1.15-5.34-1.77C493.34,319.47,493.33,321.51,493.32,323.56Z" transform="translate(-122.2 -150.2)"/><path class="cls-69" d="M557.5,328.35c1.78.58,3.56,1.21,5.34,1.84l0-6.14c-1.78-.63-3.56-1.26-5.34-1.84Z" transform="translate(-122.2 -150.2)"/><path d="M552.15,326.87c1.79.39,3.57.91,5.35,1.48l0-6.14c-1.78-.57-3.56-1.09-5.34-1.48C552.18,322.77,552.16,324.82,552.15,326.87Z" transform="translate(-122.2 -150.2)"/><path class="cls-69" d="M546.81,326.06a36.27,36.27,0,0,1,5.34.81c0-2.05,0-4.1,0-6.14a36.4,36.4,0,0,0-5.35-.81Z" transform="translate(-122.2 -150.2)"/><path d="M541.46,326.11a31.86,31.86,0,0,1,5.35-.05l0-6.14a31.86,31.86,0,0,0-5.35.05Z" transform="translate(-122.2 -150.2)"/><path class="cls-69" d="M536.1,327a39.65,39.65,0,0,1,5.36-.88l0-6.14a39.51,39.51,0,0,0-5.35.88Z" transform="translate(-122.2 -150.2)"/><path d="M530.75,328.5c1.78-.57,3.56-1.09,5.35-1.51l0-6.14c-1.8.42-3.58.94-5.36,1.51Z" transform="translate(-122.2 -150.2)"/><path class="cls-69" d="M525.39,330.28c1.78-.59,3.57-1.21,5.36-1.78l0-6.14c-1.79.57-3.57,1.19-5.36,1.78Z" transform="translate(-122.2 -150.2)"/><path d="M520,331.92c1.79-.48,3.57-1.05,5.36-1.64l0-6.14c-1.78.59-3.57,1.16-5.36,1.64Z" transform="translate(-122.2 -150.2)"/><path class="cls-69" d="M514.67,333a43.94,43.94,0,0,0,5.36-1.1l0-6.14a43.94,43.94,0,0,1-5.36,1.1Z" transform="translate(-122.2 -150.2)"/><path d="M509.32,333.34a33.13,33.13,0,0,0,5.35-.32l0-6.14a33.06,33.06,0,0,1-5.35.32Z" transform="translate(-122.2 -150.2)"/><path class="cls-69" d="M504,332.78a34.69,34.69,0,0,0,5.35.56l0-6.14a34.43,34.43,0,0,1-5.34-.56C504,328.69,504,330.73,504,332.78Z" transform="translate(-122.2 -150.2)"/><path d="M498.63,331.47a49.45,49.45,0,0,0,5.34,1.31c0-2,0-4.09,0-6.14a49,49,0,0,1-5.35-1.31Z" transform="translate(-122.2 -150.2)"/><path class="cls-69" d="M493.29,329.7c1.78.62,3.55,1.23,5.34,1.77l0-6.14c-1.78-.54-3.56-1.15-5.34-1.77Z" transform="translate(-122.2 -150.2)"/><path d="M557.46,334.49c1.79.58,3.56,1.21,5.34,1.84,0-2.05,0-4.09,0-6.14-1.78-.63-3.56-1.26-5.34-1.84Q557.47,331.42,557.46,334.49Z" transform="translate(-122.2 -150.2)"/><path class="cls-69" d="M552.12,333c1.79.39,3.57.91,5.34,1.48q0-3.06,0-6.14c-1.78-.57-3.56-1.09-5.35-1.48Z" transform="translate(-122.2 -150.2)"/><path d="M546.78,332.2a36.27,36.27,0,0,1,5.34.81l0-6.14a36.27,36.27,0,0,0-5.34-.81Z" transform="translate(-122.2 -150.2)"/><path class="cls-69" d="M541.43,332.25a31.85,31.85,0,0,1,5.35-.05l0-6.14a31.86,31.86,0,0,0-5.35.05Z" transform="translate(-122.2 -150.2)"/><path d="M536.07,333.13a39.65,39.65,0,0,1,5.36-.88l0-6.14a39.65,39.65,0,0,0-5.36.88Z" transform="translate(-122.2 -150.2)"/><path class="cls-69" d="M530.71,334.64c1.78-.57,3.57-1.09,5.36-1.51l0-6.14c-1.79.42-3.57.94-5.35,1.51Z" transform="translate(-122.2 -150.2)"/><path d="M525.35,336.42c1.79-.59,3.57-1.21,5.36-1.78l0-6.14c-1.79.57-3.58,1.19-5.36,1.78Z" transform="translate(-122.2 -150.2)"/><path class="cls-69" d="M520,338.06c1.8-.48,3.58-1.05,5.36-1.64l0-6.14c-1.79.59-3.57,1.16-5.36,1.64Q520,335,520,338.06Z" transform="translate(-122.2 -150.2)"/><path d="M514.64,339.16a43.79,43.79,0,0,0,5.35-1.1q0-3.07,0-6.14a43.94,43.94,0,0,1-5.36,1.1Z" transform="translate(-122.2 -150.2)"/><path class="cls-69" d="M509.29,339.48a33.13,33.13,0,0,0,5.35-.32l0-6.14a33.13,33.13,0,0,1-5.35.32Z" transform="translate(-122.2 -150.2)"/><path d="M503.94,338.92a34.56,34.56,0,0,0,5.35.56l0-6.14a34.69,34.69,0,0,1-5.35-.56Z" transform="translate(-122.2 -150.2)"/><path class="cls-69" d="M498.6,337.61a48.32,48.32,0,0,0,5.34,1.31l0-6.14a49.45,49.45,0,0,1-5.34-1.31Z" transform="translate(-122.2 -150.2)"/><path d="M493.26,335.84c1.78.62,3.55,1.23,5.34,1.77l0-6.14c-1.79-.54-3.56-1.15-5.34-1.77Z" transform="translate(-122.2 -150.2)"/><path d="M562.32,292.71c-1.48-.53-3-1.07-4.54-1.56-2-.64-3.75-1.13-5.37-1.49a36.93,36.93,0,0,0-5.38-.81,32.47,32.47,0,0,0-5.4,0,40.26,40.26,0,0,0-5.4.9c-1.59.37-3.3.85-5.37,1.51l-3.51,1.16-1.86.62c-1.56.52-3.42,1.12-5.34,1.63a43.58,43.58,0,0,1-5.32,1.1,31.86,31.86,0,0,1-5.3.31,34,34,0,0,1-5.31-.55,48.44,48.44,0,0,1-5.31-1.3c-1.85-.55-3.72-1.2-5.33-1.77l-.42-.14-.23,43.75.23.09c1.62.56,3.49,1.21,5.36,1.77a51.48,51.48,0,0,0,5.37,1.32,35,35,0,0,0,5.39.56h.51a34,34,0,0,0,4.89-.33,42.82,42.82,0,0,0,5.39-1.11c1.93-.51,3.8-1.12,5.37-1.64l1.87-.62c1.14-.39,2.33-.79,3.49-1.16,2.06-.66,3.75-1.13,5.34-1.5a37.4,37.4,0,0,1,5.31-.88,32.37,32.37,0,0,1,5.3-.05,36,36,0,0,1,5.31.8c1.6.36,3.34.84,5.31,1.48,1.52.49,3,1,4.54,1.56l1.22.42.23-43.76Zm-.22,43c-1.49-.52-3-1.06-4.55-1.56l-.09,0a54.62,54.62,0,0,0-5.28-1.47h-.06a37.55,37.55,0,0,0-5.32-.81h0c-.71-.05-1.43-.08-2.14-.08a31.21,31.21,0,0,0-3.21.13h0a40.76,40.76,0,0,0-5.33.88H536c-1.57.37-3.25.84-5.29,1.49l-.09,0c-1.16.37-2.35.77-3.49,1.16l-1.77.59-.1,0c-1.54.52-3.37,1.1-5.26,1.61l-.08,0a42.65,42.65,0,0,1-5.28,1.1h0a31.85,31.85,0,0,1-5.31.31h0a35.1,35.1,0,0,1-5.3-.56h-.05a49.93,49.93,0,0,1-5.26-1.29l-.08,0c-1.74-.53-3.49-1.13-5-1.67l0-5.75,0-6.14,0-6.14,0-6.14,0-6.14,0-6.14,0-5.75c1.51.53,3.23,1.12,4.93,1.63l.09,0a47.62,47.62,0,0,0,5.29,1.3h.05a35.58,35.58,0,0,0,5.34.55h0a33.64,33.64,0,0,0,5.36-.31h0a42.93,42.93,0,0,0,5.31-1.09l.08,0c1.89-.5,3.73-1.09,5.28-1.61l.09,0,1.86-.62c1.12-.38,2.27-.77,3.41-1.13l.09,0c2-.65,3.71-1.12,5.27-1.49h.07a39.8,39.8,0,0,1,5.28-.88h0a32.48,32.48,0,0,1,5.31-.05h0a38.57,38.57,0,0,1,5.29.8l.06,0c1.58.35,3.3.83,5.25,1.46l.09,0c1.49.48,3,1,4.44,1.52l.58.2,0,5.76,0,6.14,0,6.14,0,6.13,0,6.14,0,6.15,0,5.75Z" transform="translate(-122.2 -150.2)"/><polygon points="366.63 216.63 368.48 216.1 368.32 246.59 366.48 246.58 366.63 216.63"/><polygon points="368.87 139.77 368.86 140.9 368.46 217.05 366.61 217.58 367.02 140.91 367.03 139.75 368.87 139.77"/><path d="M488.05,288.94a2.11,2.11,0,1,0,2.1-2.38A2.25,2.25,0,0,0,488.05,288.94Z" transform="translate(-122.2 -150.2)"/><polygon points="442.93 215.76 444.78 215.22 444.62 245.72 442.77 245.7 442.93 215.76"/><polygon points="445.17 138.89 445.16 140.03 444.75 216.17 442.9 216.71 443.32 140.03 443.32 138.88 445.17 138.89"/><path d="M564.34,288.06a2.28,2.28,0,0,0,2.08,2.42,2.42,2.42,0,1,0-2.08-2.42Z" transform="translate(-122.2 -150.2)"/></svg>